<?xml version="1.0" encoding="utf-8"?>
<!-- Generator: Adobe Illustrator 18.1.1, SVG Export Plug-In . SVG Version: 6.00 Build 0)  -->
<!DOCTYPE svg PUBLIC "-//W3C//DTD SVG 1.1//EN" "http://www.w3.org/Graphics/SVG/1.1/DTD/svg11.dtd">
<svg version="1.1" id="Layer_1" xmlns="http://www.w3.org/2000/svg" xmlns:xlink="http://www.w3.org/1999/xlink" x="0px" y="0px"
	 viewBox="0 264.9 1296 136.8" enable-background="new 0 264.9 1296 136.8" xml:space="preserve">
<path fill="#FF5000" d="M379.8,321.3H228.6c-1.2,0-2.4,1.2-2.4,2.4v18.6c0,1.2,1.2,2.4,2.4,2.4h151.2c1.2,0,2.4-1.2,2.4-2.4v-18.6
	C381.6,322.5,381,321.3,379.8,321.3z"/>
<path fill="#FF5000" d="M379.8,378.3H228.6c-1.2,0-2.4,1.2-2.4,2.4v18.6c0,1.2,1.2,2.4,2.4,2.4h151.2c1.2,0,2.4-1.2,2.4-2.4v-18.6
	C381.6,378.9,381,378.3,379.8,378.3z"/>
<path fill="#FF5000" d="M379.8,264.9H228.6c-1.2,0-2.4,1.2-2.4,2.4v18.6c0,1.2,1.2,2.4,2.4,2.4h151.2c1.2,0,2.4-1.2,2.4-2.4v-18.6
	C381.6,266.1,381,264.9,379.8,264.9z"/>
<path fill="#FFFFFF" d="M153,378.3H32.4c-5.4,0-9.6-4.2-9.6-9.6V267.3c0-1.2-0.6-2.4-1.8-2.4H2.4c-1.2,0-2.4,1.2-2.4,2.4v101.4
	c0,18,14.4,32.4,32.4,32.4H153c1.2,0,2.4-1.2,2.4-2.4v-18.6C155.4,378.9,154.2,378.3,153,378.3z"/>
<path fill="#FFFFFF" d="M1263.6,264.9h-129c-1.2,0-2.4,1.2-2.4,2.4v75.6c0,1.2,1.2,2.4,2.4,2.4h18.6c1.2,0,2.4-1.2,2.4-2.4v-55.2
	h108c5.4,0,9.6,4.2,9.6,9.6v71.4c0,5.4-4.2,9.6-9.6,9.6h-129c-1.2,0-2.4,1.2-2.4,2.4v18.6c0,1.2,1.2,2.4,2.4,2.4h129
	c18,0,32.4-14.4,32.4-32.4v-72C1296,279.3,1281.6,264.9,1263.6,264.9z"/>
<path fill="#FFFFFF" d="M614.4,264.9h-129c-18,0-32.4,14.4-32.4,32.4v71.4c0,18,14.4,32.4,32.4,32.4h129c1.2,0,2.4-1.2,2.4-2.4v-75
	c0-1.2-1.2-2.4-2.4-2.4h-69.6c-1.2,0-2.4,1.2-2.4,2.4v18.6c0,1.2,1.2,2.4,2.4,2.4h48.6v33.6h-108c-5.4,0-9.6-4.2-9.6-9.6v-71.4
	c0-5.4,4.2-9.6,9.6-9.6h129c1.2,0,2.4-1.2,2.4-2.4v-18C616.8,266.1,615.6,264.9,614.4,264.9z"/>
<path fill="#FFFFFF" d="M1028.4,264.9H907.8c-1.2,0-2.4,1.2-2.4,2.4v132c0,1.2,1.2,2.4,2.4,2.4h18.6c1.2,0,2.4-1.2,2.4-2.4V287.7
	h99.6c5.4,0,9.6,4.2,9.6,9.6v101.4c0,1.2,1.2,2.4,2.4,2.4h18.6c1.2,0,2.4-1.2,2.4-2.4V297.3C1060.8,279.3,1046.4,264.9,1028.4,264.9
	z"/>
<g>
	<path fill="#FF5000" d="M832.2,321.3H681c-1.2,0-2.4,1.2-2.4,2.4v18.6c0,1.2,1.2,2.4,2.4,2.4h151.2c1.2,0,2.4-1.2,2.4-2.4v-18.6
		C834.6,322.5,833.4,321.3,832.2,321.3z"/>
	<path fill="#FF5000" d="M832.2,264.9H681c-1.2,0-2.4,1.2-2.4,2.4v18.6c0,1.2,1.2,2.4,2.4,2.4h151.2c1.2,0,2.4-1.2,2.4-2.4v-18.6
		C834.6,266.1,833.4,264.9,832.2,264.9z"/>
	<path fill="#FF5000" d="M832.2,378.3H681c-1.2,0-2.4,1.2-2.4,2.4v18.6c0,1.2,1.2,2.4,2.4,2.4h151.2c1.2,0,2.4-1.2,2.4-2.4v-18.6
		C834.6,378.9,833.4,378.3,832.2,378.3z"/>
</g>
</svg>
